HIERARCHY
ROOT Hips
{
	OFFSET 0.000000 0.000000 0.000000
	CHANNELS 6 Xposition Yposition Zposition Zrotation Yrotation Xrotation 
	JOINT LHipJoint
	{
		OFFSET 0.000000 0.000000 0.000000
		CHANNELS 3 Zrotation Yrotation Xrotation
		JOINT LeftUpLeg
		{
			OFFSET 1.363060 -1.794630 0.839290
			CHANNELS 3 Zrotation Yrotation Xrotation
			JOINT LeftLeg
			{
				OFFSET 2.448110 -6.726130 0.000000
				CHANNELS 3 Zrotation Yrotation Xrotation
				JOINT LeftFoot
				{
					OFFSET 2.562200 -7.039590 0.000000
					CHANNELS 3 Zrotation Yrotation Xrotation
					JOINT LeftToeBase
					{
						OFFSET 0.157640 -0.433110 2.322550
						CHANNELS 3 Zrotation Yrotation Xrotation
						End Site
						{
							OFFSET 0.000000 0.000000 0.000000
						}
					}
				}
			}
		}
	}
	JOINT RHipJoint
	{
		OFFSET 0.000000 0.000000 0.000000
		CHANNELS 3 Zrotation Yrotation Xrotation
		JOINT RightUpLeg
		{
			OFFSET -1.305520 -1.794630 0.839290
			CHANNELS 3 Zrotation Yrotation Xrotation
			JOINT RightLeg
			{
				OFFSET -2.542530 -6.985550 0.000000
				CHANNELS 3 Zrotation Yrotation Xrotation
				JOINT RightFoot
				{
					OFFSET -2.568260 -7.056230 0.000000
					CHANNELS 3 Zrotation Yrotation Xrotation
					JOINT RightToeBase
					{
						OFFSET -0.164730 -0.452590 2.363150
						CHANNELS 3 Zrotation Yrotation Xrotation
						End Site
						{
							OFFSET 0.000000 0.000000 0.000000
						}
					}
				}
			}
		}
	}
	JOINT LowerBack
	{
		OFFSET 0.000000 0.000000 0.000000
		CHANNELS 3 Zrotation Yrotation Xrotation
		JOINT Spine
		{
			OFFSET 0.028270 2.035590 -0.193380
			CHANNELS 3 Zrotation Yrotation Xrotation
			JOINT Spine1
			{
				OFFSET 0.056720 2.048850 -0.042750
				CHANNELS 3 Zrotation Yrotation Xrotation
				JOINT Neck
				{
					OFFSET 0.000000 0.000000 0.000000
					CHANNELS 3 Zrotation Yrotation Xrotation
					JOINT Neck1
					{
						OFFSET -0.054170 1.746240 0.172020
						CHANNELS 3 Zrotation Yrotation Xrotation
						JOINT Head
						{
							OFFSET 0.104070 1.761360 -0.123970
							CHANNELS 3 Zrotation Yrotation Xrotation
							End Site
							{
								OFFSET 0.000000 0.000000 0.000000
							}
						}
					}
				}
				JOINT LeftShoulder
				{
					OFFSET 0.000000 0.000000 0.000000
					CHANNELS 3 Zrotation Yrotation Xrotation
					JOINT LeftArm
					{
						OFFSET 3.362410 1.200890 -0.311210
						CHANNELS 3 Zrotation Yrotation Xrotation
						JOINT LeftForeArm
						{
							OFFSET 4.983000 -0.000000 -0.000000
							CHANNELS 3 Zrotation Yrotation Xrotation
							JOINT LeftHand
							{
								OFFSET 3.483560 -0.000000 -0.000000
								CHANNELS 3 Zrotation Yrotation Xrotation
								JOINT LeftFingerBase
								{
									OFFSET 0.000000 0.000000 0.000000
									CHANNELS 3 Zrotation Yrotation Xrotation
									JOINT LeftHandIndex1
									{
										OFFSET 0.715260 -0.000000 -0.000000
										CHANNELS 3 Zrotation Yrotation Xrotation
										End Site
										{
											OFFSET 0.000000 0.000000 0.000000
										}
									}
								}
								JOINT LThumb
								{
									OFFSET 0.000000 0.000000 0.000000
									CHANNELS 3 Zrotation Yrotation Xrotation
									End Site
									{
										OFFSET 0.000000 0.000000 0.000000
									}
								}
							}
						}
					}
				}
				JOINT RightShoulder
				{
					OFFSET 0.000000 0.000000 0.000000
					CHANNELS 3 Zrotation Yrotation Xrotation
					JOINT RightArm
					{
						OFFSET -3.136600 1.374050 -0.404650
						CHANNELS 3 Zrotation Yrotation Xrotation
						JOINT RightForeArm
						{
							OFFSET -5.241900 -0.000000 -0.000000
							CHANNELS 3 Zrotation Yrotation Xrotation
							JOINT RightHand
							{
								OFFSET -3.444170 -0.000000 -0.000000
								CHANNELS 3 Zrotation Yrotation Xrotation
								JOINT RightFingerBase
								{
									OFFSET 0.000000 0.000000 0.000000
									CHANNELS 3 Zrotation Yrotation Xrotation
									JOINT RightHandIndex1
									{
										OFFSET -0.622530 -0.000000 -0.000000
										CHANNELS 3 Zrotation Yrotation Xrotation
										End Site
										{
											OFFSET 0.000000 0.000000 0.000000
										}
									}
								}
								JOINT RThumb
								{
									OFFSET 0.000000 0.000000 0.000000
									CHANNELS 3 Zrotation Yrotation Xrotation
									End Site
									{
										OFFSET 0.000000 0.000000 0.000000
									}
								}
							}
						}
					}
				}
			}
		}
	}
}
MOTION
Frames: 11
Frame Time: 0.008333
4.938531 16.728476 -22.307320 0.716414 10.220864 20.096360 1.522909 -0.506927 -1.140489 -10.490617 -11.074822 -46.938705 4.062646 13.071468 37.571749 0.345213 -10.804479 -0.612266 0.057100 -1.541500 -4.240200 -1.212617 0.292665 -1.060689 13.423547 8.881152 -49.239547 -7.204109 -16.060582 49.887311 2.426873 -14.382638 -12.086857 -0.000700 -0.174600 0.479800 5.661015 -1.425486 45.045818 4.454450 1.635512 6.173035 2.630496 0.524458 -6.276322 -13.464788 -11.799542 -15.224385 14.791781 -12.871816 -2.508533 6.421000 -5.822700 5.612300 -1.760824 0.006029 3.323177 -103.257206 -48.080120 68.512283 56.606944 -57.483125 -27.036183 0.452565 3.294137 -15.688245 35.235858 27.122904 15.203100 -7.125000 0.000000 0.000000 5.421500 57.863600 1.710300 2.477535 0.800191 0.197617 66.774791 36.608844 32.254734 -79.536655 58.783457 -46.576793 -2.115449 -0.057685 13.072812 -40.304795 18.699449 -15.124300 7.125000 0.000000 0.000000 -6.159600 -5.179300 -5.611600 
4.939317 16.725039 -22.293470 0.606318 10.265010 19.849199 1.526130 -0.507687 -1.140275 -10.388419 -11.076525 -46.712790 4.099596 13.118467 37.743849 0.350384 -10.770990 -0.782896 0.059100 -1.569200 -4.316600 -1.214418 0.294435 -1.061600 13.612298 8.817002 -48.947495 -7.215305 -16.071541 49.932656 2.422554 -14.382375 -12.195783 -0.000600 -0.162100 0.445400 5.663490 -1.524242 44.747373 4.378884 1.477044 6.107282 2.572343 0.459804 -6.331629 -13.524146 -11.789479 -14.862810 15.181457 -12.770330 -3.528238 6.592400 -5.787200 5.226400 -1.752071 -0.020799 3.275782 -102.636406 -47.525058 68.170468 56.685226 -57.469226 -27.027277 0.282745 3.321035 -17.073287 34.411854 27.944044 15.236900 -7.125000 0.000000 0.000000 4.402800 58.559800 1.461700 2.475714 0.870187 0.211287 66.952080 35.282890 32.810487 -82.803756 58.730186 -49.400954 -2.144766 0.027857 13.526098 -41.315924 19.852026 -16.451200 7.125000 0.000000 0.000000 -6.520900 -3.520000 -6.148800 
4.940593 16.721306 -22.278541 0.487021 10.300257 19.608269 1.528498 -0.507995 -1.139472 -10.268479 -11.085070 -46.490122 4.137319 13.166436 37.919417 0.356282 -10.728640 -0.969450 0.061800 -1.604300 -4.413400 -1.216770 0.296474 -1.062547 13.813655 8.745202 -48.661837 -7.225394 -16.081294 49.973976 2.414576 -14.365936 -12.298619 -0.000500 -0.145000 0.398300 5.646871 -1.597387 44.434024 4.329638 1.346807 6.042997 2.552094 0.406031 -6.389298 -13.601288 -11.779724 -14.491423 15.553745 -12.653895 -4.642484 6.762400 -5.749300 4.807700 -1.741732 -0.050316 3.229882 -102.123731 -46.930826 67.917763 56.845775 -57.490843 -27.071416 0.100048 3.334798 -18.643819 33.511506 28.646454 15.149100 -7.125000 0.000000 0.000000 3.288000 59.102600 1.133800 2.477546 0.941214 0.219845 67.039687 33.947058 33.280548 -85.872773 58.574694 -52.157236 -2.162975 0.144668 15.091123 -43.168008 20.672658 -18.114800 7.125000 0.000000 0.000000 -7.429400 -1.918900 -7.238100 
4.942165 16.718065 -22.262530 0.359683 10.318082 19.358559 1.530369 -0.508000 -1.138430 -10.140828 -11.084584 -46.251102 4.175082 13.214067 38.093783 0.362730 -10.682873 -1.168422 0.065400 -1.649500 -4.538000 -1.219786 0.298883 -1.063729 14.028024 8.668929 -48.361608 -7.233302 -16.089270 50.007546 2.401857 -14.329282 -12.396350 -0.000400 -0.128200 0.352300 5.607897 -1.645782 44.122620 4.300515 1.242226 5.985651 2.562995 0.362314 -6.444642 -13.686710 -11.766338 -14.111071 15.909648 -12.519421 -5.849861 6.931000 -5.706800 4.356500 -1.731004 -0.081808 3.185626 -101.701326 -46.305988 67.741746 57.098726 -57.547478 -27.174087 -0.090435 3.331201 -20.364516 32.539226 29.173044 14.919600 -7.125000 0.000000 0.000000 2.106000 59.437300 0.742800 2.483941 1.012594 0.225739 67.048268 32.621324 33.696292 -88.872088 58.327526 -54.917777 -2.155801 0.254043 17.441611 -45.342979 20.700243 -19.514500 7.125000 0.000000 0.000000 -8.688700 -1.065800 -8.625900 
4.943933 16.715315 -22.245538 0.229554 10.314662 19.094712 1.531988 -0.507748 -1.137293 -10.017305 -11.067252 -45.987740 4.212031 13.260078 38.263789 0.369686 -10.634444 -1.378275 0.069700 -1.702800 -4.685100 -1.223348 0.301665 -1.065155 14.249276 8.589053 -48.039172 -7.238602 -16.094822 50.031106 2.385816 -14.277106 -12.484990 -0.000300 -0.108200 0.297100 5.546552 -1.673634 43.820345 4.285387 1.157402 5.934491 2.598520 0.326557 -6.499362 -13.780532 -11.747564 -13.709184 16.258101 -12.367162 -7.142300 7.102500 -5.659700 3.874800 -1.720561 -0.114431 3.142050 -101.354738 -45.648391 67.625309 57.448316 -57.638063 -27.338513 -0.288502 3.309111 -22.201829 31.482461 29.564607 14.572200 -7.125000 0.000000 0.000000 0.851200 59.609400 0.303600 2.495120 1.083924 0.231559 66.999267 31.317784 34.097218 -91.905491 57.994023 -57.746210 -2.123939 0.325655 20.018279 -47.207967 19.842052 -20.080900 7.125000 0.000000 0.000000 -9.983100 -1.363300 -9.895200 
4.946094 16.713055 -22.227956 0.099141 10.292603 18.819120 1.533511 -0.507315 -1.135956 -9.902244 -11.034299 -45.705018 4.248371 13.304908 38.430389 0.376881 -10.581762 -1.592783 0.074100 -1.756500 -4.833300 -1.227131 0.304561 -1.066502 14.472541 8.503589 -47.699448 -7.241492 -16.098340 50.045776 2.365717 -14.207191 -12.565260 -0.000200 -0.087000 0.238900 5.475219 -1.692430 43.536459 4.274975 1.082731 5.880309 2.642667 0.294368 -6.566097 -13.876447 -11.716614 -13.280979 16.595639 -12.191602 -8.504152 7.276100 -5.604900 3.366400 -1.710410 -0.147881 3.097109 -101.058163 -44.948700 67.548405 57.899350 -57.760139 -27.567597 -0.492604 3.266804 -24.124677 30.333995 29.841135 14.121200 -7.125000 0.000000 0.000000 -0.475600 59.642700 -0.170000 2.510076 1.154251 0.239481 66.930865 30.046431 34.543800 -95.000419 57.587297 -60.648725 -2.077682 0.344088 22.139898 -48.266537 18.366712 -19.559000 7.125000 0.000000 0.000000 -10.979400 -2.782200 -10.633300 
4.948648 16.711189 -22.209883 -0.030652 10.249409 18.532184 1.535088 -0.506634 -1.134418 -9.798889 -10.980500 -45.405369 4.284965 13.349080 38.596319 0.384494 -10.527807 -1.810400 0.078300 -1.804500 -4.965600 -1.230927 0.307561 -1.067665 14.696041 8.416804 -47.343392 -7.242531 -16.100190 50.053338 2.343563 -14.127405 -12.635770 -0.000100 -0.059500 0.163600 5.396971 -1.704052 43.276128 4.264223 1.016524 5.818610 2.686143 0.265279 -6.651320 -13.970608 -11.672648 -12.821567 16.923323 -11.994815 -9.918157 7.451700 -5.543200 2.836400 -1.700473 -0.181354 3.049825 -100.789954 -44.202563 67.503040 58.459323 -57.912637 -27.867682 -0.702171 3.203836 -26.112128 29.100431 30.055971 13.602100 -7.125000 0.000000 0.000000 -1.871200 59.598500 -0.667100 2.527249 1.222125 0.250457 66.877905 28.829213 35.084310 -98.095996 57.132000 -63.558410 -2.026370 0.312367 23.227170 -48.383236 16.739378 -18.211500 7.125000 0.000000 0.000000 -11.476800 -4.840500 -10.688700 
4.951791 16.709028 -22.191712 -0.157402 10.188526 18.249886 1.536596 -0.505555 -1.132490 -9.705703 -10.911798 -45.112452 4.322609 13.394298 38.766800 0.392331 -10.470534 -2.030780 0.082200 -1.849400 -5.089600 -1.234321 0.310550 -1.068374 14.911743 8.331107 -46.994848 -7.243132 -16.101483 50.058931 2.319598 -14.037685 -12.695171 -0.000000 -0.026500 0.072700 5.315399 -1.713573 43.023842 4.250545 0.952358 5.743843 2.725099 0.236252 -6.757288 -14.060241 -11.612880 -12.334312 17.236681 -11.776447 -11.359694 7.627400 -5.473800 2.292900 -1.690446 -0.214766 2.999590 -100.533976 -43.406123 67.477761 59.129670 -58.093385 -28.243986 -0.914100 3.122291 -28.147210 27.837202 30.272531 13.074500 -7.125000 0.000000 0.000000 -3.290700 59.555600 -1.170300 2.544998 1.286731 0.263588 66.859046 27.678232 35.771208 -101.104113 56.651726 -66.395619 -1.976673 0.260416 22.896717 -47.981830 15.667010 -16.991800 7.125000 0.000000 0.000000 -11.534000 -6.433900 -10.386800 
4.955425 16.706573 -22.173541 -0.281191 10.111824 17.974358 1.538019 -0.504099 -1.130165 -9.622293 -10.828811 -44.830701 4.361819 13.440759 38.943230 0.400422 -10.411868 -2.252474 0.085600 -1.887300 -5.194200 -1.237293 0.313487 -1.068588 15.118891 8.248391 -46.655781 -7.243553 -16.102432 50.063942 2.293467 -13.937870 -12.747990 -0.000000 0.007100 -0.019600 5.233120 -1.726470 42.777973 4.231961 0.884457 5.654306 2.757102 0.204751 -6.884419 -14.141660 -11.535146 -11.830226 17.529396 -11.536614 -12.802977 7.799900 -5.395700 1.744700 -1.680520 -0.248471 2.946408 -100.278382 -42.561933 67.459842 59.915920 -58.301007 -28.706405 -1.124935 3.025127 -30.208815 26.604863 30.548214 12.591700 -7.125000 0.000000 0.000000 -4.691600 59.584500 -1.673000 2.562359 1.347803 0.278004 66.883289 26.606664 36.627001 -103.987283 56.156687 -69.110518 -1.929892 0.200680 21.165624 -47.186953 15.352095 -16.217100 7.125000 0.000000 0.000000 -11.172500 -7.208700 -9.876700 
4.959452 16.703724 -22.155468 -0.406076 10.013972 17.709422 1.539268 -0.502192 -1.127594 -9.543186 -10.724817 -44.566581 4.403030 13.489120 39.127599 0.408821 -10.354093 -2.478690 0.088900 -1.923100 -5.293300 -1.239922 0.316486 -1.068400 15.319506 8.181220 -46.329572 -7.244270 -16.103661 50.069982 2.266963 -13.835301 -12.795049 -0.000000 0.042300 -0.116100 5.143479 -1.738676 42.529484 4.209577 0.813915 5.554567 2.786455 0.171410 -7.022567 -14.210322 -11.442232 -11.339519 17.797833 -11.280553 -14.216214 7.965300 -5.309400 1.206500 -1.671195 -0.282087 2.891657 -100.020632 -41.689326 67.448476 60.799251 -58.530787 -29.258409 -1.321193 2.929324 -32.305000 25.692121 30.965138 12.322600 -7.125000 0.000000 0.000000 -5.807900 59.821600 -2.105400 2.578260 1.404521 0.292550 66.945812 25.629256 37.625266 -106.645564 55.667232 -71.597769 -1.887530 0.136434 18.381292 -46.165717 15.605186 -15.824000 7.125000 0.000000 0.000000 -10.538500 -7.328700 -9.270400 
4.963676 16.700483 -22.137297 -0.532653 9.894721 17.456751 1.540175 -0.499553 -1.124561 -9.465245 -10.601549 -44.320438 4.445710 13.538664 39.317561 0.417545 -10.297647 -2.709938 0.091800 -1.954100 -5.378900 -1.242383 0.319812 -1.067901 15.514510 8.131920 -46.015973 -7.245096 -16.104893 50.076058 2.240285 -13.731253 -12.838670 -0.000100 0.077300 -0.212300 5.035883 -1.758881 42.267116 4.189143 0.727070 5.440165 2.831623 0.129457 -7.177510 -14.301231 -11.323434 -10.798980 18.058866 -10.994877 -15.603495 8.138800 -5.209700 0.667200 -1.661516 -0.316169 2.832362 -99.748571 -40.761962 67.375677 61.791124 -58.782025 -29.920085 -1.484701 2.851974 -34.416067 25.364755 31.440097 12.359900 -7.125000 0.000000 0.000000 -6.333500 60.232400 -2.358900 2.592649 1.458903 0.307294 67.028165 24.731004 38.740694 -109.000858 55.203534 -73.776029 -1.850486 0.073206 15.079116 -45.028503 16.182011 -15.642900 7.125000 0.000000 0.000000 -9.757100 -7.068700 -8.611200 
